<svg width="24" height="24" viewBox="0 0 24 24" fill="none" xmlns="http://www.w3.org/2000/svg">
<path d="M8.03711 5.2168C8.2026 5.2169 8.33675 5.35112 8.33691 5.5166V7.21777C8.33687 7.38336 8.20268 7.51747 8.03711 7.51758H3.7041C3.53861 7.51768 3.40446 7.6519 3.4043 7.81738V12.5645C3.40434 12.73 3.53853 12.8642 3.7041 12.8643H6.25879C6.42428 12.8644 6.55843 12.9986 6.55859 13.1641V14.9678C6.55855 15.1334 6.42436 15.2675 6.25879 15.2676H3.7041C3.53861 15.2677 3.40446 15.4019 3.4043 15.5674V20.1855C3.40434 20.3511 3.53853 20.4852 3.7041 20.4854H15.6445C15.8101 20.4852 15.9443 20.3511 15.9443 20.1855V16.6455C15.9445 16.48 16.0786 16.3458 16.2441 16.3457H17.9443C18.1098 16.3458 18.244 16.48 18.2441 16.6455V20.4756L18.2646 20.4961V22.4863C18.2646 22.6519 18.1304 22.786 17.9648 22.7861H1.14258C1.072 22.7859 1.01485 22.7288 1.01465 22.6582V22.5371L1 22.5225V5.5166C1.00017 5.35112 1.13431 5.2169 1.2998 5.2168H8.03711Z" fill="#151515"/>
<path d="M8.90625 17.1005V13.6504L12.1406 10.2003L15.375 13.6504L21.8437 6.75018V10.2003" stroke="black" stroke-width="2" stroke-linecap="round" stroke-linejoin="round"/>
<path d="M8.90625 9.05024L12.1406 5.60013L15.375 9.05024L21.8437 2.15002" stroke="black" stroke-width="2" stroke-linecap="round" stroke-linejoin="round"/>
</svg>
